<?xml version="1.0" standalone="no"?>
<!DOCTYPE svg PUBLIC "-//W3C//DTD SVG 20010904//EN"
 "http://www.w3.org/TR/2001/REC-SVG-20010904/DTD/svg10.dtd">
<svg version="1.0" xmlns="http://www.w3.org/2000/svg"
 width="800.000000pt" height="119.000000pt" viewBox="0 0 800.000000 119.000000"
 preserveAspectRatio="xMidYMid meet">

<g transform="translate(0.000000,119.000000) scale(0.100000,-0.100000)"
fill="#000000" stroke="none">
<path d="M3724 1166 c-125 -29 -233 -108 -277 -204 -18 -38 -22 -65 -22 -147
0 -91 2 -104 28 -147 15 -26 46 -62 70 -81 70 -57 116 -74 363 -138 137 -35
181 -79 137 -137 -26 -35 -63 -44 -155 -38 -95 7 -184 35 -267 87 -52 33 -66
38 -77 27 -37 -39 -154 -183 -154 -190 0 -25 146 -107 255 -145 148 -50 367
-53 488 -6 112 44 195 125 223 221 19 60 18 180 -1 225 -48 115 -164 184 -410
242 -134 31 -181 55 -190 94 -24 112 172 123 361 22 l72 -39 77 110 c72 103
75 111 58 123 -43 34 -154 85 -223 105 -97 27 -271 35 -356 16z"/>
<path d="M7288 1157 c-181 -55 -335 -204 -389 -377 -88 -283 37 -586 292 -708
46 -22 108 -45 137 -51 130 -27 308 -4 423 54 53 28 199 161 199 182 0 7 -28
31 -62 55 -35 23 -85 59 -112 79 l-50 38 -56 -53 c-101 -93 -222 -110 -333
-48 -112 62 -169 212 -133 351 21 84 67 146 136 185 47 27 65 31 125 31 84 -1
143 -24 208 -84 l44 -41 118 90 117 90 -68 68 c-114 114 -209 152 -394 158
-110 4 -134 1 -202 -19z"/>
<path d="M40 595 l0 -565 155 0 155 0 2 311 3 311 150 -192 c83 -106 191 -245
240 -309 l91 -116 137 -3 137 -3 0 566 0 565 -155 0 -156 0 3 -295 c2 -162 0
-294 -4 -293 -7 3 -99 119 -353 446 l-110 141 -147 1 -148 0 0 -565z"/>
<path d="M1320 595 l0 -565 460 0 461 0 -3 133 -3 132 -300 2 c-165 1 -301 5
-302 8 -2 3 -3 43 -3 90 l0 85 270 0 270 0 0 120 0 120 -270 0 -270 0 0 90 0
90 300 0 300 0 0 130 0 130 -455 0 -455 0 0 -565z"/>
<path d="M2340 1025 l0 -135 170 0 170 0 0 -430 0 -430 155 0 155 0 0 430 0
430 170 0 170 0 0 135 0 135 -495 0 -495 0 0 -135z"/>
<path d="M4371 1138 c7 -13 41 -70 77 -128 36 -58 127 -208 204 -333 l138
-229 0 -209 0 -209 155 0 155 0 0 216 c0 195 2 218 19 242 10 15 57 90 104
167 46 77 131 214 187 305 56 90 106 173 111 182 9 17 -1 18 -164 18 l-173 0
-36 -62 c-19 -35 -46 -81 -58 -103 -12 -22 -49 -87 -83 -143 l-60 -104 -48 84
c-27 45 -79 138 -116 205 l-68 123 -178 0 -178 0 12 -22z"/>
<path d="M5632 598 l3 -563 152 -3 153 -3 2 313 3 312 155 -198 c85 -109 194
-248 241 -309 l86 -112 139 0 139 0 3 563 2 562 -155 0 -155 0 0 -295 c0 -162
-3 -295 -7 -294 -5 0 -39 41 -78 91 -38 49 -90 116 -115 147 -25 32 -97 123
-160 204 l-115 147 -148 0 -147 0 2 -562z"/>
</g>
</svg>
